<?xml version="1.0" encoding="UTF-8"?>
<svg id="Layer_1" data-name="Layer 1" xmlns="http://www.w3.org/2000/svg" xmlns:xlink="http://www.w3.org/1999/xlink" viewBox="0 0 1080 1080">
  <defs>
    <style>
      .cls-1 {
        fill: none;
      }

      .cls-2 {
        fill: #fabcbe;
      }

      .cls-3 {
        fill: #6dac9c;
      }

      .cls-4 {
        fill: #364b7b;
      }

      .cls-5 {
        clip-path: url(#clippath);
      }
    </style>
    <clipPath id="clippath">
      <path class="cls-1" d="M1066.58,1044.96H13.42l413.77-483.18c29.07,29.1,68.86,47.08,112.81,47.08s83.79-17.93,112.81-47.08l413.77,483.18Z"/>
    </clipPath>
  </defs>
  <g>
    <g>
      <path class="cls-2" d="M427.19,570.92c-24.15-23.73-40.78-55.05-46.23-90.03-2.19-14.09-13.85-24.74-28.17-24.74H41.57c-15.57,0-28.17,12.61-28.17,28.11v548.86c0,6.54,5.3,11.84,11.84,11.84h514.76v-427.88c-43.98,0-83.75-17.64-112.81-46.17Z"/>
      <circle class="cls-2" cx="196.23" cy="217.87" r="182.84"/>
    </g>
    <g>
      <path class="cls-4" d="M652.81,570.92c24.15-23.73,40.78-55.05,46.23-90.03,2.19-14.09,13.85-24.74,28.17-24.74h311.21c15.57,0,28.17,12.61,28.17,28.11v548.86c0,6.54-5.3,11.84-11.84,11.84h-514.76v-427.88c43.98,0,83.75-17.64,112.81-46.17Z"/>
      <circle class="cls-4" cx="883.77" cy="217.87" r="182.84"/>
    </g>
  </g>
  <g class="cls-5">
    <path class="cls-3" d="M1066.6,484.27v548.86c0,6.51-5.27,11.84-11.84,11.84H25.24c-6.51,0-11.84-5.33-11.84-11.84V484.27c0-15.51,12.61-28.11,28.17-28.11h311.21c14.32,0,25.98,10.65,28.17,24.74,5.45,34.98,22.08,66.29,46.23,90.03,29.06,28.53,68.84,46.17,112.81,46.17s83.75-17.64,112.81-46.17c24.15-23.73,40.78-55.05,46.23-90.03,2.19-14.09,13.85-24.74,28.17-24.74h311.21c15.57,0,28.17,12.61,28.17,28.11Z"/>
  </g>
</svg>